<svg width="923" height="675" viewBox="0 0 923 675" fill="none" xmlns="http://www.w3.org/2000/svg">
<g clip-path="url(#clip0_117_2)">
<path d="M922.2 674.906H0C10.105 649.137 28.766 627.276 55.072 620.791C93.554 611.317 134.278 637.366 172.672 627.572C194.486 622.014 211.66 605.813 229.706 592.36C297.786 541.601 391.083 526.599 471.643 553.466C513.753 567.502 552.126 592.049 595.263 602.489C651.043 615.989 709.377 604.789 766.738 602.948C822.606 601.15 902.652 623.913 922.2 674.906Z" fill="#F3F5FD"/>
<path d="M607.954 413.288H287.824V0H539.824L607.954 72V413.288Z" fill="#DEE8F5"/>
<path d="M539.824 0V72H607.954L539.824 0Z" fill="#F3F5FD"/>
<path d="M859.938 353.922H651.349V84.634H815.546L859.938 131.548V353.922Z" fill="#F3F5FD"/>
<path d="M815.546 84.634V131.548H859.938L815.546 84.634Z" fill="#DEE8F5"/>
<path d="M244.429 353.922H35.84V84.634H200.037L244.429 131.548V353.922Z" fill="#F3F5FD"/>
<path d="M200.037 84.634V131.548H244.429L200.037 84.634Z" fill="#DEE8F5"/>
<path d="M262.478 308.8C261.207 308.798 259.96 308.462 258.86 307.826C257.76 307.19 256.847 306.276 256.211 305.176C255.576 304.076 255.241 302.828 255.24 301.557C255.239 300.287 255.571 299.038 256.205 297.937L287.611 243.367C288.08 242.531 288.71 241.797 289.465 241.207C290.22 240.616 291.084 240.181 292.008 239.927C292.932 239.673 293.897 239.604 294.847 239.726C295.798 239.847 296.715 240.155 297.546 240.633C298.376 241.111 299.104 241.749 299.686 242.511C300.268 243.272 300.694 244.141 300.938 245.067C301.182 245.994 301.24 246.96 301.109 247.909C300.977 248.858 300.659 249.772 300.172 250.597L268.765 305.167C268.13 306.273 267.214 307.191 266.11 307.829C265.006 308.467 263.753 308.802 262.478 308.8V308.8Z" fill="#0D9ED3"/>
<path d="M311.083 253.923C309.926 253.923 308.759 253.873 307.583 253.774C296.809 252.854 286.842 247.693 279.875 239.424C272.907 231.156 269.509 220.458 270.429 209.685C271.348 198.912 276.51 188.945 284.779 181.977C293.047 175.009 303.744 171.611 314.518 172.531V172.531C324.989 173.426 334.71 178.329 341.653 186.219C348.596 194.108 352.224 204.374 351.781 214.874C351.337 225.374 346.856 235.297 339.273 242.573C331.689 249.848 321.589 253.915 311.08 253.923H311.083ZM311.034 186.875C304.156 186.865 297.549 189.55 292.627 194.354C287.705 199.158 284.861 205.698 284.704 212.574C284.547 219.45 287.089 226.113 291.786 231.137C296.483 236.161 302.961 239.144 309.832 239.449C316.703 239.754 323.419 237.355 328.543 232.767C333.666 228.179 336.788 221.766 337.24 214.904C337.692 208.041 335.438 201.275 330.961 196.054C326.484 190.833 320.14 187.574 313.289 186.975C312.533 186.907 311.78 186.875 311.034 186.875V186.875Z" fill="#0D9ED3"/>
<path d="M209.976 662.2L189.123 659.72C190.061 651.827 191.123 642.346 191.195 640.791C191.195 640.891 191.195 640.973 191.195 641.036H212.195C212.19 641.663 212.19 643.579 209.976 662.2Z" fill="#E98862"/>
<path d="M126.3 664.706L105.3 664.639C105.3 664.639 105.369 642.954 105.369 641.033H126.369C126.37 642.96 126.3 664.706 126.3 664.706Z" fill="#E98862"/>
<path d="M217.723 654.935C215.985 610.926 215.88 564.704 215.336 520.579C208.11 472.987 204.317 420.787 195.401 373.529L195.135 373.608L194.353 368.278L118.276 363.587C118.276 363.587 116.292 400.864 115.6 413.287C111.892 479.874 104.367 586.902 99.8879 654.375L136.756 657.49C143.341 591.131 154.078 485.415 160.028 420.011C166.558 453.338 172.716 490.867 178.513 524.589C179.782 567.667 180.844 612.559 180.728 655.567L217.723 654.935Z" fill="#262626"/>
<path d="M151.828 672.829C152.918 672.824 153.961 672.386 154.728 671.612C155.495 670.839 155.923 669.792 155.918 668.702C155.918 668.602 155.918 668.502 155.905 668.402C155.844 667.622 155.561 666.875 155.09 666.25C154.619 665.625 153.979 665.147 153.246 664.873L128.8 656.687C128.326 656.53 127.825 656.478 127.329 656.533C126.833 656.588 126.355 656.75 125.928 657.007C122.568 659.338 118.548 660.53 114.46 660.407C111.276 660.181 108.22 659.064 105.64 657.184C105.413 656.998 105.138 656.881 104.847 656.845C104.556 656.81 104.261 656.858 103.996 656.984C103.732 657.109 103.508 657.308 103.351 657.556C103.195 657.804 103.112 658.091 103.113 658.384V670.336C103.113 671.046 103.395 671.727 103.897 672.23C104.4 672.732 105.081 673.014 105.791 673.014H105.801L151.828 672.829Z" fill="#C1D8ED"/>
<path d="M235.562 672.829C236.651 672.824 237.694 672.386 238.461 671.613C239.228 670.839 239.656 669.792 239.651 668.703C239.651 668.603 239.646 668.503 239.638 668.403C239.577 667.623 239.295 666.876 238.824 666.251C238.353 665.626 237.713 665.148 236.98 664.874L212.537 656.688C212.063 656.531 211.562 656.479 211.066 656.534C210.57 656.589 210.092 656.751 209.665 657.008C206.304 659.339 202.285 660.531 198.197 660.408C195.013 660.182 191.956 659.065 189.376 657.185C189.149 656.999 188.874 656.882 188.583 656.846C188.292 656.811 187.997 656.859 187.732 656.985C187.467 657.11 187.244 657.309 187.087 657.557C186.931 657.805 186.848 658.092 186.849 658.385V670.337C186.849 671.047 187.131 671.728 187.633 672.231C188.135 672.733 188.817 673.015 189.527 673.015H189.538L235.562 672.829Z" fill="#C1D8ED"/>
<path d="M142.926 261.054C142.926 261.054 150.658 256.954 148.932 235.898L164.908 232.935C164.908 232.935 163.108 251.814 171.195 257.807L142.926 261.054Z" fill="#E98862"/>
<path d="M139.867 227.733C140.973 234.121 144.459 240.171 150.094 242.233C156.784 244.683 161.739 244.849 169.452 244.849C179.977 244.849 179.629 233.872 179.925 222.81C180.225 211.71 179.338 199.792 175.178 195.922C166.878 188.198 142.505 193.089 139.541 206.009C138.01 212.692 138.81 221.652 139.867 227.733Z" fill="#E98862"/>
<path d="M186.427 195.8C184.667 189.343 179.179 186.189 170.105 188.561C163.651 190.248 162.834 188.731 157.368 186.1C154.238 184.593 143.968 185.281 141.427 192.232C138.703 199.678 130.276 193.648 129.493 205.778C128.838 215.931 132.27 230.444 139.166 238.611C141.554 241.438 145.449 244.827 148.466 245.665C151.429 246.489 164.239 245.765 165.484 245.031C171.601 241.399 170.973 224.741 170.003 214.055C169.844 212.297 170.167 209.375 174.679 209.375C177.779 209.375 179.496 209.301 181.097 208.147C181.1 208.147 188.189 202.256 186.427 195.8Z" fill="#0F1011"/>
<path d="M176.062 224.908C176.184 226.526 175.661 228.127 174.607 229.36C173.553 230.594 172.054 231.361 170.436 231.493C168.819 231.625 167.215 231.112 165.975 230.065C164.735 229.019 163.959 227.524 163.817 225.908C163.739 225.118 163.817 224.321 164.047 223.562C164.277 222.802 164.654 222.096 165.157 221.482C165.66 220.869 166.28 220.36 166.979 219.986C167.679 219.612 168.445 219.379 169.235 219.301C169.303 219.294 169.37 219.288 169.435 219.284C173.816 219.145 175.785 221.527 176.062 224.908Z" fill="#E98862"/>
<path d="M263.1 293.832C263.1 293.832 279.952 285.981 282.6 283.859C291.924 276.392 291.728 270.825 290.467 268.472C288.981 265.691 271.492 274.872 271.492 274.872C271.492 274.872 274.882 270.172 273.053 268.882C272.301 268.352 271.268 268.844 268.242 271.866C264.793 275.313 258.884 280.149 258.884 280.149L263.1 293.832Z" fill="#E98862"/>
<path d="M119.213 315.275C120.179 319.149 120.706 323.12 120.786 327.112C120.786 348.112 111.286 357.53 111.986 368.312C113.086 385.257 195.415 381.253 199.61 371.628C203.929 361.702 195.163 355.586 195.547 323.119C195.588 319.585 195.861 315.889 196.237 312.125L212.437 341.125C213.285 342.643 214.484 343.937 215.934 344.897C217.384 345.857 219.043 346.456 220.772 346.645C222.501 346.833 224.25 346.605 225.872 345.98C227.495 345.355 228.945 344.35 230.1 343.05L274.984 290.55L258.13 278.7L223.992 317.108L197.292 269.308C194.764 261.757 189.009 256.699 177.269 256.196C173.254 256.024 153.663 255.996 139.319 255.996C129.683 255.996 121.772 258.953 117.203 263.521L117.134 263.589C115.459 265.294 114.167 267.337 113.346 269.582C112.525 271.827 112.193 274.221 112.372 276.605C112.817 283.381 114.3 296.829 119.213 315.275Z" fill="#F20231"/>
<path d="M415.55 116.545L407.096 108.091L352.249 162.938L360.703 171.392L415.55 116.545Z" fill="white"/>
<path d="M407.096 171.392L415.55 162.938L360.703 108.091L352.249 116.545L407.096 171.392Z" fill="white"/>
<path d="M543.53 116.544L535.077 108.091L480.23 162.938L488.683 171.391L543.53 116.544Z" fill="white"/>
<path d="M535.077 171.392L543.53 162.939L488.683 108.092L480.23 116.545L535.077 171.392Z" fill="white"/>
<path d="M392.408 265.122L383.573 257C384.541 255.944 407.773 231.129 451.389 231.129C495.26 231.129 515.727 256.251 516.577 257.32L507.182 264.786C506.482 263.923 489.194 243.129 451.389 243.129C413.281 243.13 392.612 264.9 392.408 265.122Z" fill="white"/>
<path d="M747.989 443.282L737.684 445.719L750.604 500.368L760.91 497.932L747.989 443.282Z" fill="#F0F6FF"/>
<path d="M759.329 439.044L750.48 487.012L756.202 488.068L765.05 440.1L759.329 439.044Z" fill="#C1D8ED"/>
<path d="M759.334 439.029L758.327 444.32L764.042 445.408L765.049 440.117L759.334 439.029Z" fill="#DEE8F5"/>
<path d="M741.615 451.227L738.438 452.479L756.979 499.542L760.156 498.29L741.615 451.227Z" fill="#0D9ED3"/>
<path d="M765.502 471.828H737.554V507.548H765.502V471.828Z" fill="#C1D8ED"/>
<path d="M662.948 572.069H652.495V674.905H662.948V572.069Z" fill="#C1D8ED"/>
<path d="M654.344 572.069H643.891V674.905H654.344V572.069Z" fill="#DEE8F5"/>
<path d="M793.153 572.069H782.7V674.905H793.153V572.069Z" fill="#C1D8ED"/>
<path d="M784.55 572.069H774.097V674.905H784.55V572.069Z" fill="#DEE8F5"/>
<path d="M691.619 572.069H681.166V674.905H691.619V572.069Z" fill="#C1D8ED"/>
<path d="M683.016 572.069H672.563V674.905H683.016V572.069Z" fill="#DEE8F5"/>
<path d="M821.824 572.069H811.371V674.905H821.824V572.069Z" fill="#C1D8ED"/>
<path d="M813.221 572.069H802.768V674.905H813.221V572.069Z" fill="#DEE8F5"/>
<path d="M821.825 506.244H681.231V574.535H821.825V506.244Z" fill="#C1D8ED"/>
<path d="M784.485 506.244H643.891V574.535H784.485V506.244Z" fill="#DEE8F5"/>
<g opacity="0.53">
<path d="M776.922 515.952H651.455V564.525H776.922V515.952Z" fill="#F3F5FD"/>
</g>
<path d="M714.188 545.811C717.265 545.811 719.76 543.316 719.76 540.239C719.76 537.162 717.265 534.667 714.188 534.667C711.111 534.667 708.616 537.162 708.616 540.239C708.616 543.316 711.111 545.811 714.188 545.811Z" fill="white"/>
</g>
<defs>
<clipPath id="clip0_117_2">
<rect width="922.201" height="674.906" fill="white"/>
</clipPath>
</defs>
</svg>
